<?xml version="1.0" encoding="UTF-8"?>
<svg xmlns="http://www.w3.org/2000/svg" version="1.1" viewBox="0 0 500 259.6">
  <defs>
    <style>
      .cls-1 {
        fill: #1d1d1b;
      }
    </style>
  </defs>
  <!-- Generator: Adobe Illustrator 28.7.3, SVG Export Plug-In . SVG Version: 1.2.0 Build 164)  -->
  <g>
    <g id="Ebene_1">
      <g>
        <path class="cls-1" d="M407.8,259.6H17.3c-9.7,0-17.6-7.9-17.6-17.6s7.9-17.6,17.6-17.6h390.5c31.6,0,57.3-25.6,57.3-57.2s-25.7-57.2-57.3-57.2H92.6c-9.7,0-17.6-7.9-17.6-17.6s7.9-17.6,17.6-17.6h315.2c51,0,92.5,41.5,92.5,92.4s-41.5,92.4-92.5,92.4Z"/>
        <path class="cls-1" d="M407.4,184.8H92.2C41.2,184.8-.4,143.4-.4,92.4S41.2,0,92.2,0h390.5c9.7,0,17.6,7.9,17.6,17.6s-7.9,17.6-17.6,17.6H92.2c-31.6,0-57.3,25.6-57.3,57.2s25.7,57.2,57.3,57.2h315.2c9.7,0,17.6,7.9,17.6,17.6s-7.9,17.6-17.6,17.6Z"/>
      </g>
    </g>
  </g>
</svg>